<svg width="20" height="20" viewBox="0 0 20 20" fill="none" xmlns="http://www.w3.org/2000/svg">
<path d="M1.42928 4.54575C1.42369 4.13293 1.50018 3.72311 1.65429 3.34009C1.8084 2.95708 2.03707 2.60849 2.32703 2.31459C2.61698 2.02068 2.96243 1.78731 3.34333 1.62803C3.72422 1.46874 4.13297 1.38672 4.54583 1.38672C4.95869 1.38672 5.36743 1.46874 5.74833 1.62803C6.12922 1.78731 6.47468 2.02068 6.76463 2.31459C7.05458 2.60849 7.28326 2.95708 7.43737 3.34009C7.59148 3.72311 7.66796 4.13293 7.66237 4.54575C7.68083 4.73129 7.65397 4.91854 7.5841 5.09141C6.64386 4.77143 5.79058 4.2379 5.0912 3.53271C5.02082 3.45891 4.9362 3.40017 4.84246 3.36003C4.74872 3.3199 4.6478 3.2992 4.54583 3.2992C4.44386 3.2992 4.34294 3.3199 4.2492 3.36003C4.15546 3.40017 4.07083 3.45891 4.00045 3.53271L3.4548 3.92238C3.37211 3.99567 3.30592 4.08566 3.26058 4.18642C3.21525 4.28718 3.19181 4.39641 3.19181 4.5069C3.19181 4.61738 3.21525 4.72661 3.26058 4.82737C3.30592 4.92813 3.37211 5.01812 3.4548 5.09141C4.19464 5.80804 4.75525 6.68889 5.0912 7.66258H4.54554C3.71975 7.66002 2.92852 7.3308 2.34464 6.74682C1.76077 6.16284 1.43169 5.37154 1.42928 4.54575ZM12.415 5.16912C12.3511 4.96786 12.3248 4.75655 12.3373 4.54575C12.3373 3.92927 12.5201 3.32664 12.8627 2.81407C13.2052 2.3015 13.692 1.90201 14.2615 1.66612C14.8311 1.43023 15.4578 1.36854 16.0624 1.48885C16.6671 1.60916 17.2224 1.90606 17.6583 2.34202C18.0942 2.77797 18.391 3.33339 18.5112 3.93804C18.6314 4.54268 18.5696 5.16939 18.3336 5.7389C18.0976 6.30842 17.698 6.79516 17.1854 7.13758C16.6727 7.47999 16.0701 7.66269 15.4536 7.66258C15.2686 7.67003 15.0839 7.64349 14.9085 7.5843C15.2445 6.61064 15.8051 5.72981 16.5449 5.01313C16.6187 4.94275 16.6775 4.85813 16.7176 4.76439C16.7577 4.67064 16.7784 4.56973 16.7784 4.46776C16.7784 4.36578 16.7577 4.26487 16.7176 4.17113C16.6775 4.07738 16.6187 3.99276 16.5449 3.92238L16.077 3.455C16.0066 3.38121 15.922 3.32246 15.8282 3.28233C15.7345 3.24219 15.6336 3.2215 15.5316 3.2215C15.4296 3.2215 15.3287 3.24219 15.235 3.28233C15.1412 3.32246 15.0566 3.38121 14.9862 3.455C14.2518 4.19177 13.3776 4.77453 12.415 5.16912ZM7.5841 14.9087C7.64329 15.0841 7.66982 15.2688 7.66237 15.4538C7.66249 16.0703 7.47978 16.6729 7.13737 17.1856C6.79496 17.6982 6.30822 18.0978 5.7387 18.3338C5.16918 18.5698 4.54247 18.6316 3.93783 18.5114C3.33319 18.3912 2.77777 18.0944 2.34181 17.6585C1.90586 17.2226 1.60895 16.6673 1.48864 16.0626C1.36833 15.458 1.43002 14.8313 1.66591 14.2617C1.9018 13.6922 2.30129 13.2054 2.81387 12.8629C3.32644 12.5204 3.92907 12.3375 4.54554 12.3375C4.73086 12.3251 4.91674 12.3515 5.0912 12.4152C4.75706 13.4126 4.19703 14.3194 3.4548 15.0647C3.30483 15.2222 3.22119 15.4314 3.22119 15.6489C3.22119 15.8664 3.30483 16.0756 3.4548 16.2332L4.00045 16.7005C4.15945 16.8145 4.35018 16.8759 4.54583 16.8759C4.74148 16.8759 4.93221 16.8145 5.0912 16.7005C5.77366 15.9199 6.62665 15.3068 7.5841 14.9087ZM15.9993 15.5321C14.5394 14.061 13.7202 12.0725 13.7202 10.0001C13.7202 7.92757 14.5394 5.9391 15.9993 4.46804L15.5319 4.00066C14.821 4.73646 13.9704 5.32302 13.0299 5.726C12.0895 6.12897 11.0781 6.34027 10.055 6.3475C9.03193 6.35474 8.01766 6.15777 7.07162 5.76814C6.12559 5.37851 5.2668 4.80403 4.54554 4.07837L4.00045 4.54575C5.46032 6.0168 6.27953 8.00528 6.27953 10.0778C6.27953 12.1503 5.46032 14.1387 4.00045 15.6098L4.54554 15.9995C6.0166 14.5396 8.00507 13.7204 10.0776 13.7204C12.1501 13.7204 14.1385 14.5396 15.6096 15.9995L15.9993 15.5321ZM9.99986 11.6359C9.67616 11.636 9.35969 11.5401 9.0905 11.3604C8.82131 11.1806 8.61148 10.925 8.48755 10.626C8.36362 10.3269 8.33117 9.99787 8.39429 9.68038C8.45741 9.3629 8.61328 9.07126 8.84217 8.84237C9.07106 8.61348 9.36269 8.45762 9.68018 8.3945C9.99766 8.33137 10.3267 8.36383 10.6258 8.48776C10.9248 8.61168 11.1804 8.82151 11.3601 9.09071C11.5399 9.3599 11.6358 9.67636 11.6357 10.0001C11.6406 10.2162 11.6017 10.4312 11.5212 10.6318C11.4407 10.8325 11.3204 11.0148 11.1675 11.1677C11.0146 11.3206 10.8323 11.4409 10.6316 11.5214C10.4309 11.6019 10.216 11.6408 9.99986 11.6359ZM18.5704 15.4538C18.576 15.8666 18.4995 16.2764 18.3454 16.6595C18.1913 17.0425 17.9626 17.3911 17.6727 17.685C17.3827 17.9789 17.0373 18.2122 16.6564 18.3715C16.2755 18.5308 15.8667 18.6128 15.4539 18.6128C15.041 18.6128 14.6323 18.5308 14.2514 18.3715C13.8705 18.2122 13.525 17.9789 13.2351 17.685C12.9451 17.3911 12.7165 17.0425 12.5623 16.6595C12.4082 16.2764 12.3317 15.8666 12.3373 15.4538C12.3249 15.2687 12.3514 15.083 12.415 14.9087C13.4126 15.2425 14.3194 15.8026 15.0645 16.5451C15.1349 16.6189 15.2195 16.6777 15.3132 16.7178C15.407 16.7579 15.5079 16.7786 15.6099 16.7786C15.7118 16.7786 15.8128 16.7579 15.9065 16.7178C16.0002 16.6777 16.0849 16.6189 16.1552 16.5451L16.6226 16.0772C16.6964 16.0068 16.7552 15.9222 16.7953 15.8284C16.8354 15.7347 16.8561 15.6338 16.8561 15.5318C16.8561 15.4298 16.8354 15.3289 16.7953 15.2352C16.7552 15.1414 16.6964 15.0568 16.6226 14.9864C15.8643 14.2541 15.3017 13.3434 14.9862 12.3375C15.1422 12.3375 15.3759 12.2593 15.5319 12.2593C16.3484 12.3089 17.1158 12.6661 17.6796 13.2588C18.2434 13.8515 18.5617 14.6358 18.5704 15.4538Z" fill="url(#paint0_linear_456_395)"/>
<defs>
<linearGradient id="paint0_linear_456_395" x1="9.99986" y1="1.38672" x2="9.99986" y2="18.6128" gradientUnits="userSpaceOnUse">
<stop stop-color="#54FFF3"/>
<stop offset="1" stop-color="#1FC6FF"/>
</linearGradient>
</defs>
</svg>
