<svg xmlns="http://www.w3.org/2000/svg" width="48" height="48" viewBox="0 0 48 48" fill="none">
  <circle cx="24" cy="24" r="19.5" fill="#534A1E" stroke="#F5E74F"/>
  <mask id="mask0_398_118" style="mask-type:alpha" maskUnits="userSpaceOnUse" x="12" y="12" width="24" height="24">
    <rect x="12" y="12" width="24" height="24" fill="#C4C4C4"/>
  </mask>
  <g mask="url(#mask0_398_118)">
    <path d="M18.5463 27.4285C17.5422 27.4285 16.7281 28.4518 16.7281 29.7142C16.7281 30.9765 17.5422 31.9999 18.5463 31.9999C19.5504 31.9999 20.3645 30.9765 20.3645 29.7142C20.3645 28.4518 19.5504 27.4285 18.5463 27.4285ZM31.2736 29.7143C31.2736 28.4519 30.4595 27.4286 29.4554 27.4286C28.4513 27.4286 27.6373 28.4519 27.6373 29.7143C27.6373 30.9766 28.4513 32 29.4554 32C30.4595 32 31.2736 30.9766 31.2736 29.7143Z" fill="white"/>
    <path d="M14 16.572V29.1482C14 29.4608 14.2041 29.7145 14.4587 29.7145H15.8182C15.8182 27.8207 17.0391 26.2859 18.5454 26.2859C20.0518 26.2859 21.2727 27.8209 21.2727 29.7145H26.7273C26.7273 27.8207 27.9482 26.2859 29.4545 26.2859C30.9609 26.2859 32.1818 27.8209 32.1818 29.7145H33.5486C33.7977 29.7145 34 29.4568 34 29.1402V24.1595C34 23.8429 33.9786 23.331 33.9136 23.0315L30.6737 17.5514C30.5027 17.3257 30.1568 17.1428 29.9114 17.1428H26.2704C26.0209 17.1428 25.8182 17.3937 25.8182 17.7154V26.2858H24.9091V16.572C24.9091 16.256 24.7055 16 24.4541 16H14.455C14.3952 15.9999 14.336 16.0147 14.2808 16.0434C14.2256 16.0721 14.1754 16.1143 14.1332 16.1674C14.0909 16.2205 14.0574 16.2836 14.0345 16.353C14.0117 16.4225 13.9999 16.4969 14 16.572ZM27.1291 19.4926C27.1291 19.1783 27.3323 18.92 27.5827 18.92H29.7495C30.0014 18.92 30.3168 19.1292 30.4577 19.3875L32.0936 22.3904C32.2328 22.6459 32.145 22.8573 31.8941 22.8573H27.5832C27.3336 22.8573 27.1291 22.6007 27.1291 22.2847V19.4926Z" fill="white"/>
  </g>
  <circle cx="24" cy="24" r="23.5" stroke="url(#paint0_linear_398_118)"/>
  <defs>
    <linearGradient id="paint0_linear_398_118" x1="24" y1="0" x2="24" y2="48" gradientUnits="userSpaceOnUse">
      <stop stop-color="#FAEA37"/>
      <stop offset="1" stop-color="#FAEA37" stop-opacity="0"/>
    </linearGradient>
  </defs>
</svg>