<svg width="85" height="34" viewBox="0 0 85 34" fill="none" xmlns="http://www.w3.org/2000/svg">
<rect x="0.5" y="0.5" width="84" height="33" fill="url(#paint0_linear_398_248)"/>
<rect x="0.5" y="0.5" width="84" height="33" stroke="url(#paint1_linear_398_248)"/>
<path d="M9.84636 18.3175L7.88511 16.3562C7.81538 16.2866 7.76006 16.2038 7.72232 16.1128C7.68458 16.0218 7.66515 15.9242 7.66515 15.8256C7.66515 15.727 7.68458 15.6294 7.72232 15.5384C7.76006 15.4473 7.81538 15.3646 7.88511 15.295L11.6385 11.5423C11.7791 11.4017 11.9699 11.3228 12.1687 11.3228C12.3676 11.3228 12.5583 11.4017 12.699 11.5423L17.5676 16.4102C17.7082 16.5509 17.7872 16.7416 17.7872 16.9405C17.7872 17.1393 17.7082 17.3301 17.5676 17.4707L16.8911 18.1476L18.7166 18.7622C18.7771 18.7826 18.8314 18.818 18.8744 18.8653C18.9173 18.9125 18.9475 18.9699 18.9621 19.032C18.9767 19.0942 18.9751 19.159 18.9576 19.2204C18.9401 19.2818 18.9073 19.3377 18.8621 19.3828L15.6739 22.5711C15.6287 22.6162 15.5728 22.6491 15.5114 22.6666C15.45 22.6841 15.3852 22.6856 15.3231 22.6711C15.2609 22.6565 15.2035 22.6263 15.1563 22.5834C15.1091 22.5404 15.0736 22.4861 15.0532 22.4256L14.4382 20.6001L13.8142 21.2241C13.6736 21.3647 13.4829 21.4437 13.284 21.4437C13.0851 21.4437 12.8944 21.3647 12.7537 21.2241L10.9597 19.4305L10.3522 20.4752C10.3169 20.5362 10.273 20.5919 10.2221 20.6406C10.1559 20.7067 10.0766 20.7582 9.98924 20.7917C9.85567 20.8467 9.70907 20.8621 9.56699 20.836H8.49936V21.7026C8.49498 21.8985 8.4141 22.0848 8.27403 22.2218C8.13396 22.3588 7.94584 22.4355 7.74993 22.4355C7.55402 22.4355 7.36589 22.3588 7.22582 22.2218C7.08575 22.0848 7.00487 21.8985 7.00049 21.7026V18.7738C7.00487 18.578 7.08575 18.3916 7.22582 18.2546C7.36589 18.1177 7.55402 18.041 7.74993 18.041C7.94584 18.041 8.13396 18.1177 8.27403 18.2546C8.4141 18.3916 8.49498 18.578 8.49936 18.7738V19.5002H9.15899L9.84711 18.3175H9.84636ZM14.7274 17.1662C14.7976 17.237 14.8811 17.2933 14.973 17.3319C15.065 17.3705 15.1637 17.3905 15.2634 17.3909C15.3632 17.3913 15.462 17.3721 15.5543 17.3343C15.6466 17.2965 15.7306 17.241 15.8014 17.1707C15.8716 17.1 15.9273 17.016 15.9651 16.9238C16.003 16.8315 16.0223 16.7327 16.0219 16.6329C16.0216 16.5332 16.0016 16.4345 15.9631 16.3425C15.9246 16.2505 15.8684 16.167 15.7976 16.0967C15.7274 16.0259 15.6438 15.9695 15.5518 15.931C15.4598 15.8924 15.3611 15.8724 15.2613 15.872C15.1615 15.8716 15.0626 15.8909 14.9703 15.9288C14.878 15.9666 14.794 16.0223 14.7232 16.0926C14.653 16.1634 14.5974 16.2473 14.5595 16.3396C14.5217 16.4319 14.5025 16.5307 14.5028 16.6304C14.5032 16.7302 14.5233 16.8289 14.5618 16.9209C14.6003 17.0128 14.6566 17.0963 14.7274 17.1666V17.1662Z" fill="#A9F6FF"/>
<path d="M28.052 14.174C27.8187 13.754 27.5247 13.292 27.17 12.788C26.8247 12.2747 26.526 11.8687 26.274 11.57L27.226 10.842C27.4967 11.122 27.814 11.5047 28.178 11.99C28.542 12.466 28.8313 12.8813 29.046 13.236L28.052 14.174ZM29.69 11.444H37.306V21.636C37.306 22.0187 37.2593 22.3173 37.166 22.532C37.0727 22.756 36.9093 22.924 36.676 23.036C36.4427 23.1573 36.102 23.2367 35.654 23.274L34.856 23.344L34.478 22.14L35.304 22.084C35.6493 22.0653 35.8733 22.014 35.976 21.93C36.0787 21.8367 36.13 21.664 36.13 21.412V12.592H30.838V16.652C30.838 17.912 30.8053 18.9247 30.74 19.69C30.684 20.4553 30.5767 21.132 30.418 21.72C30.2593 22.308 30.0213 22.91 29.704 23.526L28.528 22.952C28.8827 22.2893 29.1393 21.6873 29.298 21.146C29.4567 20.5953 29.5593 19.9653 29.606 19.256C29.662 18.5467 29.69 17.5247 29.69 16.19V11.444ZM31.09 17.184V16.134H32.882V14.93H31.356V13.936H32.882V12.816L33.988 12.858V13.936H35.57V14.93H33.988V16.134H35.864V17.184H31.09ZM29.494 20.138L28.556 21.216L28.234 21.58L27.492 22.434L26.722 21.566C26.8433 21.4353 26.9227 21.3 26.96 21.16C27.0067 21.0107 27.03 20.838 27.03 20.642V16.19H25.742V14.93H28.206V19.998L28.934 19.214L29.494 20.138ZM31.538 18.094H35.22V21.678H31.538V18.094ZM32.63 20.67H34.142V19.088H32.63V20.67ZM40.7553 11.458H50.8073V21.65C50.8073 22.07 50.7513 22.392 50.6393 22.616C50.5366 22.84 50.3639 22.9987 50.1213 23.092C49.8786 23.1947 49.5239 23.2647 49.0573 23.302L48.1473 23.386L47.7553 22.07L48.6373 22C48.9266 21.9813 49.1273 21.9533 49.2393 21.916C49.3606 21.8787 49.4399 21.8133 49.4773 21.72C49.5146 21.6173 49.5333 21.454 49.5333 21.23V19.48H46.3833V23.134H45.1233V19.48H41.9453C41.8613 20.2453 41.7026 20.936 41.4693 21.552C41.2359 22.168 40.8953 22.8493 40.4473 23.596L39.2573 22.98C39.6959 22.2987 40.0133 21.7293 40.2093 21.272C40.4053 20.8053 40.5453 20.2687 40.6292 19.662C40.7133 19.046 40.7553 18.206 40.7553 17.142V11.458ZM45.1233 14.902V12.718H42.0433V14.902H45.1233ZM46.3833 14.902H49.5333V12.718H46.3833V14.902ZM45.1233 18.22V16.176H42.0433V17.618C42.0433 17.8887 42.0386 18.0893 42.0293 18.22H45.1233ZM46.3833 16.176V18.22H49.5333V16.176H46.3833ZM58.3725 16.4V17.576H57.1825V10.828L58.3725 10.87V16.26C58.8298 15.476 59.2638 14.566 59.6745 13.53C60.0852 12.494 60.3838 11.542 60.5705 10.674L61.8305 10.954C61.6998 11.5233 61.5692 12.0227 61.4385 12.452H65.4005V13.684H61.0185C60.5612 14.9347 60.0385 16.064 59.4505 17.072L58.3725 16.4ZM54.4105 11.346L55.6005 11.402V17.212H54.4105V11.346ZM61.9285 14.006C62.2738 14.2767 62.7172 14.6873 63.2585 15.238C63.7998 15.7793 64.2245 16.2413 64.5325 16.624L63.5945 17.562C63.3332 17.2073 62.9365 16.7593 62.4045 16.218C61.8818 15.6673 61.4245 15.2147 61.0325 14.86L61.9285 14.006ZM64.1405 18.052V21.776H65.6805V22.924H53.1785V21.776H54.6765V18.052H64.1405ZM57.5185 19.2H55.8805V21.776H57.5185V19.2ZM58.6245 21.776H60.2065V19.2H58.6245V21.776ZM61.3125 21.776H62.9505V19.2H61.3125V21.776ZM72.6158 13.488V15.098H71.4118V12.312H74.5898C74.4871 11.948 74.3378 11.486 74.1418 10.926L75.3738 10.744C75.5604 11.2387 75.7378 11.7613 75.9058 12.312H78.9998V15.098H77.8238V13.488H72.6158ZM70.9078 17.31C70.7398 17.394 70.4038 17.548 69.8998 17.772V21.79C69.8998 22.2007 69.8531 22.504 69.7598 22.7C69.6664 22.9053 69.5031 23.05 69.2698 23.134C69.0458 23.218 68.6958 23.2787 68.2198 23.316L67.6318 23.372L67.2818 22.154L67.9678 22.098C68.2011 22.0793 68.3644 22.0513 68.4578 22.014C68.5604 21.986 68.6304 21.93 68.6678 21.846C68.7051 21.7527 68.7238 21.6033 68.7238 21.398V18.262C68.0611 18.5327 67.5058 18.738 67.0578 18.878L66.7778 17.646C67.3284 17.478 67.9771 17.2353 68.7238 16.918V14.468H67.1978V13.222H68.7238V10.772L69.8998 10.814V13.222H71.0338V14.468H69.8998V16.414C70.1331 16.3113 70.3758 16.1993 70.6278 16.078L70.7258 16.54L70.9078 17.31ZM71.0338 16.834C71.5284 16.5353 72.0418 16.1667 72.5738 15.728C73.1151 15.28 73.5771 14.8413 73.9598 14.412L74.7578 15.28C74.3564 15.7 73.8804 16.134 73.3298 16.582C72.7884 17.03 72.2424 17.4453 71.6918 17.828L71.0338 16.834ZM76.1998 14.426C76.6384 14.7153 77.2031 15.1213 77.8938 15.644C78.5938 16.1573 79.1118 16.5633 79.4478 16.862L78.7898 17.954C78.3978 17.5807 77.8611 17.128 77.1798 16.596C76.4984 16.0547 75.9478 15.6487 75.5278 15.378L76.1998 14.426ZM78.3978 19.186H75.7798V21.636H79.3918V22.798H70.9078V21.636H74.4778V19.186H71.8458V18.024H78.3978V19.186Z" fill="white"/>
<defs>
<linearGradient id="paint0_linear_398_248" x1="42.5" y1="0" x2="42.5" y2="34" gradientUnits="userSpaceOnUse">
<stop stop-color="#2BA4B9"/>
<stop offset="1" stop-color="#134A53" stop-opacity="0"/>
</linearGradient>
<linearGradient id="paint1_linear_398_248" x1="42.5" y1="0" x2="42.5" y2="34" gradientUnits="userSpaceOnUse">
<stop stop-color="#6ECAEE"/>
<stop offset="1" stop-color="#3F7388" stop-opacity="0"/>
</linearGradient>
</defs>
</svg>
