<svg width="162" height="42" viewBox="0 0 162 42" fill="none" xmlns="http://www.w3.org/2000/svg">
<g filter="url(#filter0_i_456_589)">
<path d="M0.75 7.41667V34.0833L8.54221 40.75H152.958L160.75 34.0833V7.41667L152.958 0.75H8.54221L0.75 7.41667Z" fill="url(#paint0_linear_456_589)"/>
</g>
<path d="M0.75 7.41667V34.0833L8.54221 40.75H152.958L160.75 34.0833V7.41667L152.958 0.75H8.54221L0.75 7.41667Z" stroke="#8DDBFF" stroke-opacity="0.7"/>
<path d="M17.25 0.75H8.54221L0.75 7.41667V34.0833L8.54221 40.75H17.25" stroke="url(#paint1_linear_456_589)" stroke-width="1.5"/>
<path d="M144.25 0.75H152.958L160.75 7.41667V34.0833L152.958 40.75H144.25" stroke="url(#paint2_linear_456_589)" stroke-width="1.5"/>
<g filter="url(#filter1_d_456_589)">
<path d="M59.9441 21.0676H44.8961L45.0804 19.3133H60.1284L59.9441 21.0676ZM65.0964 15.8941H63.6204L64.6903 13.7639H66.7783L66.4454 14.5336H68.3534L68.2104 15.8941H65.8524H65.0964ZM64.1448 21.6942H63.0108L63.1538 20.3337H64.2878L64.4985 18.3287H63.3645L63.5075 16.9682H68.0255L67.8825 18.3287H66.6225L66.4118 20.3337H67.6718L67.5288 21.6942H66.2688L65.9583 24.6479C65.9282 24.9343 66.0632 25.0775 66.3632 25.0775H66.8852L65.9873 26.5992H65.1773C64.7333 26.5992 64.3776 26.444 64.1102 26.1337C63.856 25.8115 63.7572 25.3819 63.8136 24.8448L64.1448 21.6942ZM76.1428 19.8861L76.0582 20.6917H78.7402L78.5972 22.0522H75.9152L75.8305 22.8578H78.6925L78.5495 24.2183H75.6875L75.6254 24.809H73.5734L73.6355 24.2183H71.7455L72.3943 25.2387H78.4423L78.2955 26.635H70.6995L69.9312 25.3819L69.4935 26.635H67.2975L68.5663 23.1263L67.9981 22.1954H68.8981L69.4852 20.5485H67.9732L69.8207 15.6435H68.6147L68.7784 14.0861H72.5584L70.727 19.009H72.131L72.1291 19.0269L70.8359 22.7683L71.497 23.8423L71.6005 22.8578H73.7785L73.8632 22.0522H71.8652L72.0082 20.6917H74.0062L74.0908 19.8861H72.2548L72.3978 18.5256H74.2338L74.3166 17.738H72.3006L72.4455 16.3596H72.6975H74.4615L74.5443 15.5719H72.7083L72.8513 14.2114H74.6873L74.7381 13.7281H76.7901L76.7393 14.2114H79.3493L79.1235 16.3596H79.3755L79.2344 17.7022H78.9824L78.9278 18.2213C78.904 18.4481 78.8334 18.6629 78.7161 18.8658C78.6107 19.0686 78.4719 19.2477 78.2996 19.4028C78.1406 19.546 77.954 19.6653 77.74 19.7608C77.5272 19.8444 77.3068 19.8861 77.0788 19.8861H76.1428ZM76.5135 16.3596H77.0895L77.1723 15.5719H76.5963L76.5135 16.3596ZM76.2858 18.5256H76.4298C76.5498 18.5256 76.6556 18.4898 76.7471 18.4182C76.8399 18.3347 76.8932 18.2273 76.907 18.096L76.9446 17.738H76.3686L76.2858 18.5256ZM96.5552 24.6837C96.5263 24.9582 96.4454 25.2148 96.3123 25.4535C96.1912 25.6922 96.0312 25.901 95.8324 26.08C95.6336 26.259 95.4086 26.4022 95.1573 26.5096C94.9072 26.6051 94.6502 26.6529 94.3862 26.6529H84.9722L85.5724 20.9423H96.9484L96.5552 24.6837ZM94.2781 22.7146H87.8881L87.6605 24.8806H93.4745C93.6425 24.8806 93.7861 24.8269 93.9054 24.7195C94.0247 24.6121 94.0931 24.4749 94.1107 24.3078L94.2781 22.7146ZM91.8698 14.8021H98.0978L97.9115 16.5744L97.729 18.3108C97.7001 18.5853 97.6192 18.8419 97.4861 19.0806C97.353 19.3193 97.1871 19.5281 96.9882 19.7071C96.7894 19.8861 96.5644 20.0293 96.3131 20.1368C96.063 20.2322 95.806 20.28 95.542 20.28H85.03L84.5183 25.1491L83.5322 26.6529H81.0302L82.0163 25.1491L83.1038 14.8021H83.5898H89.7098L89.3907 13.7281H91.5507L91.8698 14.8021ZM95.4095 16.5744H85.5635L85.3603 18.5077H94.6483C94.8043 18.5077 94.9419 18.454 95.0612 18.3466C95.1805 18.2392 95.2483 18.1079 95.2646 17.9528L95.4095 16.5744ZM101.18 15.9657L101.364 14.2114H107.592L107.408 15.9657H101.18ZM102.066 19.3491H100.338L100.523 17.5948H107.723L107.538 19.3491H104.298L102.606 24.4868H104.64L104.422 21.9448H106.528L106.935 26.635H104.829L104.8 26.2232H102.028H100.732H99.796L102.066 19.3491ZM115.608 24.9522C115.582 25.1909 115.511 25.4117 115.394 25.6146C115.289 25.8175 115.15 25.9965 114.977 26.1516C114.806 26.2948 114.608 26.4142 114.382 26.5096C114.169 26.5932 113.949 26.635 113.721 26.635H113.199H111.381L112.156 25.0775H112.786C112.954 25.0775 113.098 25.0238 113.217 24.9164C113.337 24.809 113.405 24.6718 113.423 24.5047L114.239 16.7355H112.367L109.527 26.635H107.295L110.135 16.7355H107.975L108.16 14.9812H110.644L110.991 13.7281H113.223L112.876 14.9812H114.424H116.656L116.471 16.7355L115.608 24.9522Z" fill="url(#paint3_linear_456_589)"/>
</g>
<path d="M35.75 20.25L31.75 23.75V16.75L35.75 20.25Z" fill="#91FFFB"/>
<path d="M26.75 20.25L22.75 23.75V16.75L26.75 20.25Z" fill="#022D3C" fill-opacity="0.15"/>
<path d="M124.75 20.25L128.75 23.75V16.75L124.75 20.25Z" fill="#91FFFB"/>
<path d="M133.75 20.25L137.75 23.75V16.75L133.75 20.25Z" fill="#022D3C" fill-opacity="0.15"/>
<defs>
<filter id="filter0_i_456_589" x="0.25" y="0.25" width="161" height="45" filterUnits="userSpaceOnUse" color-interpolation-filters="sRGB">
<feFlood flood-opacity="0" result="BackgroundImageFix"/>
<feBlend mode="normal" in="SourceGraphic" in2="BackgroundImageFix" result="shape"/>
<feColorMatrix in="SourceAlpha" type="matrix" values="0 0 0 0 0 0 0 0 0 0 0 0 0 0 0 0 0 0 127 0" result="hardAlpha"/>
<feOffset dy="4"/>
<feGaussianBlur stdDeviation="3.25"/>
<feComposite in2="hardAlpha" operator="arithmetic" k2="-1" k3="1"/>
<feColorMatrix type="matrix" values="0 0 0 0 0.137511 0 0 0 0 0.628236 0 0 0 0 0.782621 0 0 0 1 0"/>
<feBlend mode="normal" in2="shape" result="effect1_innerShadow_456_589"/>
</filter>
<filter id="filter1_d_456_589" x="38.3091" y="7.72803" width="84.4783" height="24.9248" filterUnits="userSpaceOnUse" color-interpolation-filters="sRGB">
<feFlood flood-opacity="0" result="BackgroundImageFix"/>
<feColorMatrix in="SourceAlpha" type="matrix" values="0 0 0 0 0 0 0 0 0 0 0 0 0 0 0 0 0 0 127 0" result="hardAlpha"/>
<feOffset/>
<feGaussianBlur stdDeviation="3"/>
<feComposite in2="hardAlpha" operator="out"/>
<feColorMatrix type="matrix" values="0 0 0 0 0 0 0 0 0 0.239726 0 0 0 0 0.294884 0 0 0 1 0"/>
<feBlend mode="normal" in2="BackgroundImageFix" result="effect1_dropShadow_456_589"/>
<feBlend mode="normal" in="SourceGraphic" in2="effect1_dropShadow_456_589" result="shape"/>
</filter>
<linearGradient id="paint0_linear_456_589" x1="78.25" y1="-8.25" x2="80.75" y2="40.75" gradientUnits="userSpaceOnUse">
<stop stop-color="#5BFCFF"/>
<stop offset="0.54431" stop-color="#31C2D1" stop-opacity="0.5"/>
<stop offset="1" stop-color="#117695" stop-opacity="0"/>
</linearGradient>
<linearGradient id="paint1_linear_456_589" x1="9" y1="0.75" x2="9" y2="40.75" gradientUnits="userSpaceOnUse">
<stop stop-color="#DCFCFF"/>
<stop offset="0.242814" stop-color="#2A859C"/>
<stop offset="0.576969" stop-color="#116984"/>
<stop offset="0.823729" stop-color="#2F8BA2"/>
<stop offset="1" stop-color="#8DF4FF"/>
</linearGradient>
<linearGradient id="paint2_linear_456_589" x1="152.5" y1="0.75" x2="152.5" y2="40.75" gradientUnits="userSpaceOnUse">
<stop stop-color="#8DF4FF"/>
<stop offset="0.21491" stop-color="#2A859C"/>
<stop offset="0.519513" stop-color="#116984"/>
<stop offset="0.824115" stop-color="#2F8BA2"/>
<stop offset="1" stop-color="#8DF4FF"/>
</linearGradient>
<linearGradient id="paint3_linear_456_589" x1="81.75" y1="13.75" x2="82.5282" y2="30.6682" gradientUnits="userSpaceOnUse">
<stop stop-color="white"/>
<stop offset="1" stop-color="#9DF0FF"/>
</linearGradient>
</defs>
</svg>
