<svg width="35" height="35" viewBox="0 0 35 35" fill="none" xmlns="http://www.w3.org/2000/svg">
<path d="M29.6992 0.367188L33.7344 4.40234V29.5977L29.6992 33.6328H4.50391L0.46875 29.5977V4.40234L4.50391 0.367188H29.6992Z" fill="url(#paint0_linear_398_523)" fill-opacity="0.4" stroke="url(#paint1_linear_398_523)" stroke-width="0.734375"/>
<g filter="url(#filter0_d_398_523)">
<g filter="url(#filter1_i_398_523)">
<path d="M8.02246 12.699L15.6681 7.75938C16.4841 7.33085 17.7177 7.32957 18.535 7.75938L26.1807 12.699C26.8246 13.2538 26.8258 14.0554 26.1807 14.6108L18.535 19.5504C17.719 19.9789 16.4854 19.9802 15.6681 19.5504L8.02246 14.6108C7.37857 14.0566 7.37729 13.2544 8.02246 12.699ZM26.1813 16.205L18.5356 21.1446C17.719 21.5719 16.4867 21.5725 15.6688 21.1446L8.02246 16.205C7.97257 16.1487 7.91935 16.0955 7.86308 16.0456C7.38749 16.6482 7.43722 17.3797 8.02246 17.9574L15.6681 22.897C16.4867 23.3236 17.7184 23.3224 18.535 22.897L26.1807 17.9574C26.7665 17.3784 26.815 16.6476 26.34 16.0456C26.2782 16.0998 26.2291 16.1534 26.1813 16.205ZM26.1813 19.5504L18.5356 24.4906C17.719 24.9172 16.4867 24.9179 15.6688 24.4906L8.02246 19.5504C7.97464 19.4987 7.92555 19.4452 7.86308 19.3916C7.38749 19.9942 7.43722 20.7257 8.02246 21.3034L15.6681 26.243C16.4867 26.6696 17.7184 26.6684 18.535 26.243L26.1807 21.3034C26.7665 20.725 26.815 19.9936 26.34 19.3916C26.2843 19.4416 26.2313 19.4946 26.1813 19.5504Z" fill="#ADEAFF"/>
</g>
</g>
<path d="M0.367188 23.9062L0.367188 29.75L4.35156 33.7344H9.66406" stroke="#1FC6FF" stroke-width="0.734375"/>
<path d="M34.1016 0H31.4453L34.1016 2.65625V0Z" fill="#1FC6FF"/>
<defs>
<filter id="filter0_d_398_523" x="1.41406" y="1.3125" width="31.375" height="31.375" filterUnits="userSpaceOnUse" color-interpolation-filters="sRGB">
<feFlood flood-opacity="0" result="BackgroundImageFix"/>
<feColorMatrix in="SourceAlpha" type="matrix" values="0 0 0 0 0 0 0 0 0 0 0 0 0 0 0 0 0 0 127 0" result="hardAlpha"/>
<feOffset/>
<feGaussianBlur stdDeviation="1.46875"/>
<feComposite in2="hardAlpha" operator="out"/>
<feColorMatrix type="matrix" values="0 0 0 0 0 0 0 0 0 0.509804 0 0 0 0 1 0 0 0 0.32 0"/>
<feBlend mode="normal" in2="BackgroundImageFix" result="effect1_dropShadow_398_523"/>
<feBlend mode="normal" in="SourceGraphic" in2="effect1_dropShadow_398_523" result="shape"/>
</filter>
<filter id="filter1_i_398_523" x="7.53906" y="7.4375" width="19.125" height="20.5938" filterUnits="userSpaceOnUse" color-interpolation-filters="sRGB">
<feFlood flood-opacity="0" result="BackgroundImageFix"/>
<feBlend mode="normal" in="SourceGraphic" in2="BackgroundImageFix" result="shape"/>
<feColorMatrix in="SourceAlpha" type="matrix" values="0 0 0 0 0 0 0 0 0 0 0 0 0 0 0 0 0 0 127 0" result="hardAlpha"/>
<feOffset dy="1.46875"/>
<feGaussianBlur stdDeviation="1.46875"/>
<feComposite in2="hardAlpha" operator="arithmetic" k2="-1" k3="1"/>
<feColorMatrix type="matrix" values="0 0 0 0 1 0 0 0 0 1 0 0 0 0 1 0 0 0 0.5 0"/>
<feBlend mode="normal" in2="shape" result="effect1_innerShadow_398_523"/>
</filter>
<linearGradient id="paint0_linear_398_523" x1="17.1016" y1="0" x2="17.1016" y2="34" gradientUnits="userSpaceOnUse">
<stop stop-color="#1FC6FF"/>
<stop offset="1" stop-color="#1FC6FF" stop-opacity="0.6"/>
</linearGradient>
<linearGradient id="paint1_linear_398_523" x1="0.101562" y1="0" x2="34.1016" y2="34" gradientUnits="userSpaceOnUse">
<stop offset="0.0600194" stop-color="#C2EFFF"/>
<stop offset="0.18971" stop-color="#1FC6FF"/>
<stop offset="0.497724" stop-color="#1FC6FF"/>
<stop offset="0.791148" stop-color="#1FC6FF"/>
<stop offset="0.927323" stop-color="#C2EFFF"/>
</linearGradient>
</defs>
</svg>
