<svg width="15" height="16" viewBox="0 0 15 16" fill="none" xmlns="http://www.w3.org/2000/svg">
<path d="M8.69619 8.88803V15.8314L11.0046 12.8639L14.55 12.3593L8.69619 8.88803ZM9.15378 1.56437C7.05949 -0.521455 3.66509 -0.521455 1.57045 1.56437C-0.523484 3.65054 -0.523484 7.03294 1.57045 9.11912L5.36212 14.3245L7.85685 10.8991V7.38964L9.70805 8.44313C11.211 6.3566 11.0367 3.44062 9.15378 1.56437ZM5.37799 6.79762C4.10823 6.79762 3.07872 5.78505 3.07872 4.53539C3.07872 3.28609 4.10823 2.27316 5.37799 2.27316C6.64741 2.27316 7.67621 3.28609 7.67621 4.53539C7.67621 5.78505 6.64741 6.79762 5.37799 6.79762Z" fill="url(#paint0_linear_217_1496)"/>
<defs>
<linearGradient id="paint0_linear_217_1496" x1="3.71951" y1="-0.16862" x2="7.27502" y2="15.8314" gradientUnits="userSpaceOnUse">
<stop stop-color="#3BE3ED"/>
<stop offset="1" stop-color="#1FC6FF"/>
</linearGradient>
</defs>
</svg>
