<svg xmlns="http://www.w3.org/2000/svg" width="22" height="22" viewBox="0 0 22 22" fill="none">
  <circle cx="11" cy="11" r="11" fill="white"/>
  <path d="M8.2033 13.9501C7.3007 13.3136 6.6242 12.4063 6.2718 11.3595C5.91941 10.3128 5.90943 9.18104 6.24331 8.12825C6.57719 7.07546 7.23759 6.15631 8.12882 5.50398C9.02006 4.85164 10.0958 4.5 11.2003 4.5C12.3048 4.5 13.3805 4.85164 14.2718 5.50398C15.163 6.15631 15.8234 7.07546 16.1573 8.12825C16.4912 9.18104 16.4812 10.3128 16.1288 11.3595C15.7764 12.4063 15.0999 13.3136 14.1973 13.9501L15.5513 17.0443C15.5731 17.0938 15.5821 17.1479 15.5776 17.2018C15.5732 17.2556 15.5554 17.3075 15.5258 17.3528C15.4963 17.398 15.4559 17.4351 15.4084 17.4609C15.3608 17.4866 15.3077 17.5 15.2536 17.5H7.14699C7.09298 17.5001 7.03981 17.4867 6.99227 17.4611C6.94473 17.4354 6.90433 17.3984 6.87471 17.3532C6.8451 17.308 6.8272 17.2562 6.82265 17.2024C6.81809 17.1486 6.82702 17.0945 6.84862 17.045L8.20265 13.9501H8.2033ZM8.67718 10.3301C8.81836 10.8923 9.1433 11.3913 9.6004 11.7478C10.0575 12.1043 10.6206 12.298 11.2003 12.298C11.78 12.298 12.3431 12.1043 12.8002 11.7478C13.2573 11.3913 13.5822 10.8923 13.7234 10.3301L12.4617 10.0148C12.3917 10.2965 12.2295 10.5467 12.0008 10.7255C11.7722 10.9043 11.4902 11.0014 11.2 11.0014C10.9097 11.0014 10.6278 10.9043 10.3991 10.7255C10.1705 10.5467 10.0082 10.2965 9.93825 10.0148L8.67718 10.3301Z" fill="#C8C8C8"/>
</svg>